<?xml version="1.0" encoding="utf-8"?>
<!-- Generator: Adobe Illustrator 25.0.0, SVG Export Plug-In . SVG Version: 6.00 Build 0)  -->
<svg version="1.1" id="LOGO" xmlns="http://www.w3.org/2000/svg" xmlns:xlink="http://www.w3.org/1999/xlink" x="0px" y="0px"
	 width="144px" height="156px" viewBox="0 0 144 156" style="enable-background:new 0 0 144 156;" xml:space="preserve">
<style type="text/css">
	.st0{opacity:0.7;fill:#2AB3B7;enable-background:new    ;}
	.st1{fill:none;stroke:#FFFFFF;stroke-width:2;stroke-miterlimit:10;}
</style>
<g>
	<g>
		<circle class="st0" cx="72" cy="78" r="66.748"/>
	</g>
	<line class="st1" x1="25.815" y1="123.49" x2="116.016" y2="34.01"/>
	<g>
		<g>
			<path d="M52.176,17.414H50.74L35.94,109.162l3.015-2.989l5.073-32.121h9.975l2.09,13.496l5.938-6.369L52.176,17.414z
				 M44.232,72.752l4.797-30.378l4.712,30.378H44.232z"/>
		</g>
		<g>
			<polygon points="84.913,90.358 79.274,75.287 73.906,80.509 81.399,100.511 82.44,100.511 99.127,55.973 97.122,57.924 			"/>
		</g>
		<g>
			<polygon points="101.314,53.847 101.314,127.714 108.211,127.714 108.211,47.136 			"/>
		</g>
		<g>
			<polygon points="61.614,91.785 61.614,92.465 61.614,127.714 62.916,127.714 64.239,127.714 64.06,89.574 			"/>
		</g>
	</g>
</g>
</svg>
