<?xml version="1.0" encoding="utf-8"?>
<!-- Generator: Adobe Illustrator 25.2.1, SVG Export Plug-In . SVG Version: 6.00 Build 0)  -->
<svg version="1.1" id="Layer_1" xmlns="http://www.w3.org/2000/svg" xmlns:xlink="http://www.w3.org/1999/xlink" x="0px" y="0px"
	 width="78.258px" height="71.614px" viewBox="0 0 78.258 71.614" style="enable-background:new 0 0 78.258 71.614;"
	 xml:space="preserve">
<style type="text/css">
	.st0{fill:#2FA8B2;}
	.st1{fill:#95CCCB;}
</style>
<g id="nc4zC3.tif_1_">
	<g>
		<g>
			<path class="st0" d="M-121.971-23.196c0.104-0.006,0.184-0.014,0.265-0.014c5.434,0.001,10.869-0.02,16.303,0.017
				c1.98,0.014,3.841,0.534,5.451,1.757c1.486,1.128,2.344,2.646,2.699,4.457c0.33,1.683,0.333,3.352-0.379,4.953
				c-0.695,1.564-1.953,2.451-3.575,2.875c-0.078,0.021-0.156,0.044-0.233,0.069c-0.007,0.002-0.007,0.025,0.001-0.006
				c0.653,0.173,1.327,0.288,1.952,0.529c1.312,0.507,2.149,1.523,2.7,2.779c0.766,1.747,0.924,3.59,0.776,5.468
				c-0.112,1.408-0.455,2.754-1.206,3.966c-1.108,1.791-2.744,2.9-4.712,3.558c-1.255,0.42-2.55,0.629-3.872,0.63
				c-5.27,0.006-10.54,0.003-15.81,0.004c-0.108,0-0.217,0-0.359,0C-121.971-2.505-121.971-12.83-121.971-23.196z M-114.855,2.296
				c0.058,0.018,0.095,0.04,0.133,0.04c2.927-0.001,5.854,0.034,8.78-0.021c1.792-0.033,2.988-1.074,3.268-2.816
				c0.128-0.796,0.119-1.645-0.004-2.442c-0.312-2.008-1.598-3.036-3.635-3.036c-2.681,0-5.362,0-8.042,0c-0.16,0-0.319,0-0.499,0
				C-114.855-3.188-114.855-0.447-114.855,2.296z M-114.857-10.76c0.735,0,1.456,0.001,2.177,0c2.229-0.006,4.459,0.004,6.688-0.028
				c0.96-0.014,1.665-0.475,2.005-1.41c0.408-1.121,0.469-2.275,0.233-3.431c-0.273-1.338-1.187-2.124-2.606-2.095
				c-2.666,0.054-5.334,0.016-8.001,0.016c-0.159,0-0.318,0-0.497,0C-114.857-15.372-114.857-13.093-114.857-10.76z"/>
			<path class="st0" d="M-88.033-1.836c-0.143,2.41,1.081,4.634,3.705,5.235c1.527,0.349,3.053,0.282,4.522-0.279
				c1.19-0.455,1.978-1.288,2.165-2.605c0.013-0.094,0.152-0.242,0.234-0.242c1.722-0.014,3.445-0.011,5.209-0.011
				c0.029,1.051-0.12,2.04-0.477,2.995c-0.874,2.337-2.667,3.672-4.932,4.468c-2.114,0.744-4.301,0.885-6.52,0.721
				c-1.692-0.125-3.326-0.473-4.862-1.219c-2.505-1.216-4.12-3.216-5.003-5.808c-1.244-3.653-0.929-7.242,0.733-10.686
				c1.6-3.315,4.286-5.248,7.928-5.821c2.343-0.368,4.66-0.301,6.926,0.485c2.453,0.852,4.175,2.506,5.239,4.844
				c1.066,2.342,1.359,4.825,1.238,7.375c-0.02,0.421-0.149,0.563-0.604,0.561c-4.982-0.02-9.964-0.012-14.947-0.012
				C-87.654-1.836-87.829-1.836-88.033-1.836z M-88.11-5.992c3.376,0,6.75,0,10.168,0c-0.081-1.502-0.493-2.831-1.675-3.798
				c-1.12-0.916-2.45-1.08-3.84-0.928C-86.111-10.428-87.737-8.306-88.11-5.992z"/>
			<path class="st0" d="M-76.701-17.588c-4.266,0-8.489,0-12.744,0c0-1.259,0-2.495,0-3.762c4.245,0,8.479,0,12.744,0
				C-76.701-20.098-76.701-18.861-76.701-17.588z"/>
		</g>
	</g>
</g>
<g>
	<g id="_x38_g5ui1_2_">
		<rect x="16.278" y="19.853" class="st0" width="45.312" height="31.581"/>
		<g>
			<path class="st1" d="M39.112,52.092c-7.549,0-15.099-0.03-22.646,0.027c-1.414,0.011-1.85-0.445-1.843-1.841
				c0.045-9.984,0.047-19.968-0.001-29.951c-0.007-1.431,0.493-1.85,1.874-1.847c15.049,0.036,30.098,0.022,45.147,0.023
				c1.85,0,1.991,0.137,1.992,1.995c0.003,9.837,0.003,19.675,0,29.512c0,2.027-0.059,2.079-2.023,2.079
				C54.113,52.092,46.613,52.09,39.112,52.092z M39.132,40.14c6.956-6.521,13.769-12.91,20.819-19.52c-14.082,0-27.768,0-41.829,0
				C25.256,27.248,32.145,33.648,39.132,40.14z M18.36,49.935c13.964,0,27.602,0,41.546,0c-4.803-4.556-9.393-8.91-13.947-13.23
				c-0.262,0.168-0.354,0.209-0.423,0.273c-1.637,1.527-3.269,3.058-4.905,4.585c-1.427,1.331-1.556,1.329-2.978,0.018
				c-1.771-1.633-3.543-3.265-5.35-4.931C27.642,41.091,23.107,45.41,18.36,49.935z M61.527,48.611c0-8.979,0-17.659,0-26.62
				c-4.814,4.513-9.432,8.841-14.114,13.23C52.135,39.7,56.719,44.048,61.527,48.611z M16.777,22.206c0,8.892,0,17.475,0,26.362
				c4.795-4.568,9.377-8.933,14.015-13.352C26.082,30.846,21.528,26.617,16.777,22.206z"/>
		</g>
	</g>
</g>
<g>
	<g>
		<g>
			<g id="_x36_k5c9O_1_">
				<g>
					<g>
						<path class="st0" d="M-96.338,104.035c-4.172-0.16-7.964,0.269-12.086-0.22c-7.615-0.918-12.175-5.878-12.405-13.563
							c-0.22-7.425-0.229-14.86,0-22.275c0.259-8.253,5.758-13.582,14.012-13.762c7.215-0.16,14.441-0.15,21.656-0.01
							c8.353,0.17,13.872,5.599,14.091,13.952c0.19,7.295,0.19,14.61,0,21.906c-0.22,8.353-5.718,13.712-14.091,13.972
							c-3.583,0.11-7.175,0.02-10.768,0.02C-96.089,104.035-96.338,104.035-96.338,104.035z M-96.089,58.448
							C-96.089,58.448-96.229,58.378-96.089,58.448c-2.166,0-4.191,0.04-6.357,0.08c-1.497,0.02-3.004,0.11-4.501,0.19
							c-5.599,0.3-9.221,3.673-9.361,9.241c-0.19,7.415-0.18,14.85,0,22.265c0.13,5.529,3.672,9.102,9.201,9.231
							c7.415,0.19,14.85,0.18,22.265,0c5.529-0.13,9.102-3.672,9.231-9.201c0.19-7.415,0.17-14.85,0.01-22.265
							c-0.11-5.15-3.014-8.443-8.094-9.062C-87.736,58.448-92.007,58.627-96.089,58.448z"/>
					</g>
					<g>
						<path class="st0" d="M-83.055,79.096c0.01,7.116-5.768,12.914-12.884,12.924c-7.106,0.02-12.924-5.778-12.924-12.884
							c-0.01-7.116,5.778-12.924,12.884-12.924C-88.863,66.202-83.065,71.99-83.055,79.096z M-95.899,70.723
							c-4.581-0.03-8.403,3.723-8.453,8.293c-0.05,4.631,3.762,8.483,8.383,8.483c4.571,0,8.373-3.782,8.393-8.353
							S-91.328,70.753-95.899,70.723z"/>
					</g>
					<g>
						<path class="st0" d="M-82.526,62.699c1.647,0,3.004,1.377,2.984,3.024c-0.01,1.657-1.387,3.014-3.024,3.004
							c-1.647-0.01-3.014-1.397-3.004-3.034C-85.56,64.046-84.183,62.689-82.526,62.699z"/>
					</g>
				</g>
			</g>
		</g>
	</g>
</g>
</svg>
